<?xml version="1.0" standalone="no"?>
<!DOCTYPE svg PUBLIC "-//W3C//DTD SVG 20010904//EN"
 "http://www.w3.org/TR/2001/REC-SVG-20010904/DTD/svg10.dtd">
<svg version="1.0" xmlns="http://www.w3.org/2000/svg"
 width="512.000000pt" height="512.000000pt" viewBox="0 0 512.000000 512.000000"
 preserveAspectRatio="xMidYMid meet">
<metadata>
Created by potrace 1.11, written by Peter Selinger 2001-2013
</metadata>
<g transform="translate(0.000000,512.000000) scale(0.100000,-0.100000)"
fill="#000000" stroke="none">
<path d="M4230 4763 c-80 -12 -161 -24 -180 -27 -19 -2 -69 -9 -110 -16 -41
-6 -91 -13 -110 -16 -19 -2 -64 -9 -100 -15 -107 -16 -112 -17 -195 -29 -44
-6 -93 -14 -110 -16 -16 -3 -41 -7 -55 -9 -14 -2 -45 -6 -70 -10 -25 -3 -56
-8 -70 -10 -14 -2 -43 -7 -65 -10 -22 -3 -51 -7 -65 -10 -14 -2 -43 -6 -65
-10 -22 -3 -67 -10 -100 -15 -33 -5 -80 -12 -105 -15 -25 -3 -56 -8 -70 -10
-14 -3 -106 -16 -205 -30 -99 -14 -202 -30 -230 -35 -27 -5 -68 -11 -90 -14
-43 -5 -234 -34 -276 -41 -31 -6 -91 -14 -139 -20 -19 -2 -48 -6 -65 -9 -31
-5 -197 -30 -281 -42 -27 -4 -55 -7 -61 -7 -10 0 -13 -330 -13 -1613 l0 -1613
-22 5 c-51 10 -219 4 -303 -11 -201 -36 -364 -115 -486 -235 -116 -116 -157
-206 -146 -326 20 -209 251 -355 567 -356 102 0 168 9 278 37 160 42 288 111
390 209 l52 50 0 1473 0 1473 23 4 c20 5 188 30 277 42 19 3 60 9 90 14 30 5
75 11 100 14 25 4 56 8 70 11 14 2 89 14 167 25 79 11 184 26 235 34 51 8 113
18 138 21 47 6 156 23 200 30 14 2 43 7 65 9 22 3 49 7 60 10 18 3 62 9 155
22 19 3 60 9 90 14 30 5 75 12 100 15 25 3 115 17 200 30 85 13 180 26 210 30
30 4 64 9 75 11 11 2 41 7 68 10 l47 7 0 -1106 0 -1106 -22 5 c-35 6 -207 6
-258 -2 -224 -32 -429 -130 -556 -267 -86 -92 -118 -162 -121 -262 -3 -93 18
-150 81 -222 61 -70 196 -140 307 -158 19 -3 47 -8 63 -11 36 -8 175 -7 246 1
197 22 407 114 533 234 l57 54 0 1919 0 1918 -27 -2 c-16 -1 -93 -13 -173 -25z"/>
</g>
</svg>
